# xmcd CD database file
#
# Track frame offsets:
#	150
#	26715
#	35621
#	61200
#	82960
#	101764
#	121728
#	150963
#	170407
#
# Disc length: 2586 seconds
#
# Revision: 0
# Processed by: cddbd v1.4PL0 Copyright (c) Steve Scherf et al.
# Submitted via: CDex 1.51
#
DISCID=630a1809
DTITLE=Katie King - Combo Craig
DYEAR=1999
DGENRE=Jazz
TTITLE0=Miss You
TTITLE1=I Love Paris
TTITLE2=I'll Be Your Baby Tonight
TTITLE3=Templation
TTITLE4=Cold Shot
TTITLE5=Now Or Never
TTITLE6=All I Really Want To Do
TTITLE7=Imagine
TTITLE8=I Will
EXTD=YEAR: 1999
EXTT0=
EXTT1=
EXTT2=
EXTT3=
EXTT4=
EXTT5=
EXTT6=
EXTT7=
EXTT8=
PLAYORDER=
